<svg class="chart" viewBox="0 0 440 300" role="img" aria-label="commits per day" xmlns="http://www.w3.org/2000/svg"><line x1="64" x2="420" y1="244.0" y2="244.0" class="c-grid"/><text x="58" y="248.0" text-anchor="end" class="c-tick">0</text><line x1="64" x2="420" y1="200.8" y2="200.8" class="c-grid"/><text x="58" y="204.8" text-anchor="end" class="c-tick">20</text><line x1="64" x2="420" y1="157.6" y2="157.6" class="c-grid"/><text x="58" y="161.6" text-anchor="end" class="c-tick">40</text><line x1="64" x2="420" y1="114.4" y2="114.4" class="c-grid"/><text x="58" y="118.4" text-anchor="end" class="c-tick">60</text><line x1="64" x2="420" y1="71.2" y2="71.2" class="c-grid"/><text x="58" y="75.2" text-anchor="end" class="c-tick">80</text><line x1="64" x2="420" y1="28.0" y2="28.0" class="c-grid"/><text x="58" y="32.0" text-anchor="end" class="c-tick">100</text><text transform="translate(14 136) rotate(-90)" text-anchor="middle" class="c-label">commits per day</text><rect x="68.4" y="233.2" width="29.9" height="10.8" class="c-s1"><title>09-27 · commits: 5</title></rect><text x="83.8" y="230.2" text-anchor="middle" class="c-val">5</text><text x="83.8" y="260" text-anchor="middle" class="c-tick">09-27</text><rect x="107.9" y="205.1" width="29.9" height="38.9" class="c-s1"><title>09-28 · commits: 18</title></rect><text x="123.3" y="202.1" text-anchor="middle" class="c-val">18</text><text x="123.3" y="260" text-anchor="middle" class="c-tick">09-28</text><rect x="147.5" y="97.1" width="29.9" height="146.9" class="c-s1"><title>09-29 · commits: 68</title></rect><text x="162.9" y="94.1" text-anchor="middle" class="c-val">68</text><text x="162.9" y="260" text-anchor="middle" class="c-tick">09-29</text><rect x="187.0" y="99.3" width="29.9" height="144.7" class="c-s1"><title>09-30 · commits: 67</title></rect><text x="202.4" y="96.3" text-anchor="middle" class="c-val">67</text><text x="202.4" y="260" text-anchor="middle" class="c-tick">09-30</text><rect x="226.6" y="207.3" width="29.9" height="36.7" class="c-s1"><title>10-01 · commits: 17</title></rect><text x="242.0" y="204.3" text-anchor="middle" class="c-val">17</text><text x="242.0" y="260" text-anchor="middle" class="c-tick">10-01</text><rect x="266.1" y="183.5" width="29.9" height="60.5" class="c-s1"><title>10-02 · commits: 28</title></rect><text x="281.6" y="180.5" text-anchor="middle" class="c-val">28</text><text x="281.6" y="260" text-anchor="middle" class="c-tick">10-02</text><rect x="305.7" y="79.8" width="29.9" height="164.2" class="c-s1"><title>10-03 · commits: 76</title></rect><text x="321.1" y="76.8" text-anchor="middle" class="c-val">76</text><text x="321.1" y="260" text-anchor="middle" class="c-tick">10-03</text><rect x="345.2" y="161.9" width="29.9" height="82.1" class="c-s1"><title>10-04 · commits: 38</title></rect><text x="360.7" y="158.9" text-anchor="middle" class="c-val">38</text><text x="360.7" y="260" text-anchor="middle" class="c-tick">10-04</text><rect x="384.8" y="177.0" width="29.9" height="67.0" class="c-s1"><title>10-05 · commits: 31</title></rect><text x="400.2" y="174.0" text-anchor="middle" class="c-val">31</text><text x="400.2" y="260" text-anchor="middle" class="c-tick">10-05</text><line x1="64" x2="420" y1="244" y2="244" class="c-axis"/><text x="242" y="294" text-anchor="middle" class="c-label">day (2026)</text></svg>